<svg xmlns="http://www.w3.org/2000/svg" viewBox="0 0 77.02 77.02"><defs><style>.cls-1{fill:#e72e26;}.cls-2{fill:#6cb647;}.cls-3{fill:#0091e5;}.cls-4{fill:#ffa900;}</style></defs><g id="Capa_2" data-name="Capa 2"><g id="Capa_1-2" data-name="Capa 1"><path class="cls-1" d="M49.52,55l-4.33-4.32L52,43.83A26.7,26.7,0,0,0,52,6.1l-8.45,8.47-4.32-4.32,8.47-8.47a6.11,6.11,0,0,1,8.62,0,32.82,32.82,0,0,1,0,46.37Z"/><path class="cls-2" d="M25,77a6.11,6.11,0,0,1-4.31-1.78,32.83,32.83,0,0,1,0-46.38L27.51,22l4.32,4.32L25,33.18a26.71,26.71,0,0,0,0,37.73l8.45-8.47,4.32,4.32-8.47,8.48A6.11,6.11,0,0,1,25,77Z"/><path class="cls-3" d="M10.26,37.75,1.79,29.28a6.08,6.08,0,0,1,0-8.62,32.77,32.77,0,0,1,46.37,0L55,27.51l-4.32,4.32L43.84,25A26.67,26.67,0,0,0,6.11,25l8.47,8.45Z"/><path class="cls-4" d="M52.05,66a32.57,32.57,0,0,1-23.18-9.61L22,49.51l4.32-4.32L33.19,52a26.67,26.67,0,0,0,37.73,0l-8.47-8.45,4.32-4.32,8.47,8.47a6.11,6.11,0,0,1,0,8.62A32.61,32.61,0,0,1,52.05,66Z"/></g></g></svg>